<svg viewBox="0 0 500 500" xmlns="http://www.w3.org/2000/svg"><path d="m306.62 148.53c-.39-7.82-11-8.81-14.14-3l-1-.38c-.15-2.8-.46-5.56-.88-8.29a78.12 78.12 0 0 1 15.83 7.19c.11 1.51.18 2.95.19 4.48z" fill="#231815"/><path d="m291.63 149c0-.28 0-.56 0-.84a.12.12 0 0 1 .08 0 6.49 6.49 0 0 0 -.08.84z" fill="#231815"/><path d="m329.28 244.34a22.14 22.14 0 0 1 -22.14 22.14h-111.39l19.63-7.5h79.27c6.26 0 14.74 1.26 20.26-2.23a14.79 14.79 0 0 0 3.72-21.55c-6.32-8-17.32-6.58-23.48.62-4.14 4.81-10.1 1.88-12-2.77l6.64-2.54a22.14 22.14 0 0 1 39.45 13.82z" fill="#231815"/><path d="m204 173.33a61.87 61.87 0 0 0 -6.9-1.81l.42-2q4.25-1.71 8.48-3.45l2 1.84c-1.41 1.76-2.73 3.56-4 5.42z" fill="#231815"/><path d="m292.48 145.55a73.43 73.43 0 0 1 13.39 7 6.31 6.31 0 0 1 -1.65 2c-1.31-.84-2.66-1.63-4-2.38-1-.56-2.06-1.09-3.11-1.59s-1.83-.87-2.77-1.28-1.74-.73-2.63-1.07a7 7 0 0 1 .77-2.68z" fill="#231815"/><path d="m129.64 203.11c.8-1.28 1.65-2.54 2.56-3.77l.12-.15c-.89 1.38-1.71 2.79-2.48 4.23z" fill="#231815"/><path d="m286 323.06a18.3 18.3 0 1 1 -14.3 29.71l-5.87-4.06c2.41-3.67 7.51-5.48 11.18-1.24 4.35 5 11.55 6.58 16.63 1.52a10.87 10.87 0 0 0 0-15.27c-4.44-4.44-12-3.16-17.73-3.16h-36.32l-10.83-7.51z" fill="#231815"/><path d="m264.27 274h37.18c2.35 0 4.74.1 7.09 0a30 30 0 0 0 26.46-19.66c4.64-12.67-.37-27.14-11.46-34.64-12.35-8.37-29.43-5.7-39 5.54a7.48 7.48 0 0 0 -1.35 7.84c1.85 4.65 7.82 7.58 12 2.77 6.16-7.2 17.15-8.59 23.48-.62a14.79 14.79 0 0 1 -3.72 21.55c-5.51 3.49-14 2.23-20.26 2.23h-98.9c-9.65 0-9.67 15 0 15zm43.16 19.58a7 7 0 0 0 -7.16-6.28h-89.27a7 7 0 0 0 -7.15 6.28h-11.85a7 7 0 0 0 -7.14-6.29c-24.51-.28-46.37-16.61-52.84-40.4a54.63 54.63 0 0 1 3-36.6 55.74 55.74 0 0 1 8.48-13.43 54 54 0 0 1 14.15-11.78 55.07 55.07 0 0 1 40.73-5.5c1.24.29 2.48.64 3.7 1 3.34 1 6.62-.74 8.46-3.46 14.65-21.53 41.42-33.14 67.15-28.1a66.67 66.67 0 0 1 13.82 4.31c.87.38 1.73.78 2.57 1.18s1.94 1 2.89 1.49a67.66 67.66 0 0 1 8.77 5.72 66.87 66.87 0 0 1 22.86 32.58 7.55 7.55 0 0 0 5.24 5.24 44.76 44.76 0 0 1 4.78 1.31c20 6.6 33.51 26.11 30.82 47.72-2.75 22.09-22 38.41-44 38.7a7.05 7.05 0 0 0 -7.13 6.28z" fill="#fff"/><g fill="#231815"><path d="m201 164.78q-1.83 2.31-3.5 4.76l-.42 2a62.28 62.28 0 0 0 -58 18.77c-1.32-2.28-2.52-4.62-3.61-7a71.06 71.06 0 0 1 65.53-18.53z"/><path d="m291.69 148.24c.88.33 1.76.69 2.63 1.07s1.85.83 2.77 1.28 2.09 1 3.11 1.59c1.37.75 2.71 1.54 4 2.38a8.2 8.2 0 0 1 -7.29 1.43c-.95-.52-1.91-1-2.89-1.49a7 7 0 0 1 -2.41-5.46 6.49 6.49 0 0 1 .08-.8z"/><path d="m211 294.77h-7.25a7.62 7.62 0 0 1 .1-1.22h103.58a9.12 9.12 0 0 1 .09 1.22z"/><path d="m343.07 190.32-5.23-5.23c1.26.27 2.5.6 3.73.95.53 1.41 1.03 2.83 1.5 4.28z"/><path d="m334.22 193.22a72.06 72.06 0 0 0 -24.6-34.88c-1.08-.83-2.18-1.63-3.31-2.39q.13-1.5.19-3a73.87 73.87 0 0 1 29.32 39.36 51.8 51.8 0 0 1 38.8 34.48 49.44 49.44 0 0 0 -34.71-27.71q-.32-.06-.65-.16a6.76 6.76 0 0 1 -5.04-5.7z"/><path d="m306.32 156q-1-.71-2.1-1.39a6.31 6.31 0 0 0 1.65-2l.65.43q-.07 1.41-.2 2.96z"/><path d="m296.93 156a8.2 8.2 0 0 0 7.29-1.43q1.07.68 2.1 1.39c-.15 1.93-.36 3.86-.62 5.76a67.66 67.66 0 0 0 -8.77-5.72z"/><path d="m291.5 145.17 1 .38a7 7 0 0 0 -.8 2.69.12.12 0 0 0 -.08 0c-.02-1.04-.06-2.07-.12-3.07z"/><path d="m179.5 293.56h12.49a7.49 7.49 0 0 1 .1 1.21h-7.24a62.18 62.18 0 0 1 -18.39-2.77 60.57 60.57 0 0 0 13.04 1.56z"/><path d="m125.33 196.16a67.93 67.93 0 0 1 10.22-12.88c1.09 2.39 2.28 4.73 3.61 7a61.58 61.58 0 0 0 -6.84 8.89l-.12.15c-.92 1.23-1.77 2.49-2.56 3.77q-1.39-2-2.65-4.08c-.57-.93-1.12-1.89-1.66-2.85z"/><path d="m306.63 149v.08.41.1a7.45 7.45 0 0 1 -.75 2.89 73.43 73.43 0 0 0 -13.39-7c3.1-5.83 13.75-4.84 14.14 3z"/><path d="m125.71 210.53a59.6 59.6 0 0 0 3.37 54.65 59 59 0 0 0 37.38 26.82 62.18 62.18 0 0 0 18.39 2.77h7.24c0 3.78-2.38 7.56-7.24 7.51a71 71 0 0 1 -47.43-18.62c-23.28-21.42-28.82-57.14-13.65-84.78.5-.93 1-1.82 1.56-2.71.54 1 1.09 1.92 1.66 2.86q1.26 2.08 2.65 4.08a57.58 57.58 0 0 0 -3.93 7.42z"/><path d="m143.46 196.84a55.74 55.74 0 0 0 -8.46 13.43c-1.8-2.2-3.52-4.48-5.14-6.85.76-1.44 1.58-2.85 2.48-4.23.8-1.08 1.65-2.11 2.51-3.11a56.73 56.73 0 0 1 4.82-5c1.16 2 2.43 3.92 3.79 5.76z"/><path d="m143.46 196.84c-1.36-1.86-2.63-3.76-3.8-5.72 15.54-14.12 37.86-18.79 58.34-12.48l.53.14-.19.78a55.07 55.07 0 0 0 -40.73 5.5 54 54 0 0 0 -14.15 11.78z"/><path d="m122.61 232.54a62 62 0 0 1 7.24-29.12c1.62 2.37 3.34 4.65 5.14 6.85a54.63 54.63 0 0 0 -3 36.6c6.47 23.8 28.33 40.12 52.84 40.4a7 7 0 0 1 7.14 6.29c-4.17 0-8.34 0-12.49 0a60.57 60.57 0 0 1 -13-1.55 62.25 62.25 0 0 1 -43.87-59.47z"/><path d="m341.05 292.39c-6.4 1.26-12.86 1.16-19.5 1.16h-3.19a7.05 7.05 0 0 1 7.13-6.28c22-.29 41.21-16.62 44-38.7 2.69-21.6-10.87-41.12-30.82-47.72l.66-1.94q.32.1.65.16a49.44 49.44 0 0 1 34.71 27.71 51.79 51.79 0 0 1 -33.59 65.6z"/><path d="m211 294.77h96.51c0 3.75-2.41 7.51-7.25 7.51h-89.26c-4.84 0-7.25-3.76-7.25-7.51z"/><path d="m198.53 178.78c3.4.78 6.7-1.07 8.59-3.84 15.77-23.2 44.6-35.69 72.31-30.26a71.59 71.59 0 0 1 12.18 3.53v.84c0 1.43-.08 2.85-.16 4.28a66.67 66.67 0 0 0 -13.79-4.33c-25.74-5-52.51 6.57-67.15 28.1-1.84 2.71-5.13 4.48-8.46 3.46-1.23-.38-2.47-.72-3.7-1z"/><path d="m305.87 152.52a7.45 7.45 0 0 0 .75-2.89c0 1.11-.05 2.22-.11 3.32z"/><path d="m341.05 292.39a51.57 51.57 0 0 1 -15.56 2.38h-7.24a7.63 7.63 0 0 1 .11-1.22h3.19c6.64.01 13.11.1 19.5-1.16z"/><path d="m325.49 294.77a51.57 51.57 0 0 0 15.56-2.38 41.71 41.71 0 0 0 7.12-2c19.36-7.41 31.47-27 30.35-47.57a45.29 45.29 0 0 0 -3.88-16 51.8 51.8 0 0 0 -38.8-34.48 73.87 73.87 0 0 0 -29.32-39.36c.05-1.1.1-2.21.11-3.32v-.1c0-.13 0-.27 0-.41v-.15c0-.17 0-.34 0-.52 0-1.49-.09-3-.17-4.46a83.7 83.7 0 0 1 35.11 42c-1.23-.34-2.47-.68-3.73-.95l5.23 5.23c-.46-1.44-1-2.86-1.51-4.29 27.43 7.88 46.27 35.15 42.73 63.9a59.91 59.91 0 0 1 -58.8 52.35c-4.87.06-7.28-3.73-7.24-7.51z"/><path d="m122.61 232.54a62.25 62.25 0 0 0 43.85 59.46 59 59 0 0 1 -37.38-26.82 59.6 59.6 0 0 1 -3.37-54.65 57.58 57.58 0 0 1 3.93-7.42l.2.31a62 62 0 0 0 -7.23 29.12z"/><path d="m307.14 266.48a22.14 22.14 0 1 0 -17.31-36l-6.64 2.54a7.48 7.48 0 0 1 1.35-7.84c9.61-11.23 26.68-13.9 39-5.54 11.09 7.51 16.1 22 11.46 34.64a30 30 0 0 1 -26.49 19.6c-2.35.14-4.74 0-7.09 0h-105.67c-9.67 0-9.65-15 0-15h19.63l-19.63 7.5z"/><path d="m341.05 292.39a51.79 51.79 0 0 0 33.59-65.6 45.29 45.29 0 0 1 3.88 16c1.12 20.53-11 40.16-30.35 47.57a41.71 41.71 0 0 1 -7.12 2.03z"/><path d="m291.47 153.32c.09-1.42.15-2.84.16-4.28a7 7 0 0 0 2.41 5.46c-.83-.4-1.7-.8-2.57-1.18z"/><path d="m139.65 191.12a56.73 56.73 0 0 0 -4.82 5c-.86 1-1.71 2-2.51 3.11a61.58 61.58 0 0 1 6.84-8.89z"/><path d="m300.27 287.28a7 7 0 0 1 7.16 6.28h-103.57a7 7 0 0 1 7.15-6.28z"/><path d="m304.25 341.36a18.3 18.3 0 0 0 -18.3-18.3h-57.2l10.83 7.51h-10.82c-9.67 0-9.65-15 0-15h48.63c7.33 0 14.52-.41 21.21 3.31 13.48 7.47 17.13 25.88 7.86 38a26 26 0 0 1 -40.1 1.16 7.54 7.54 0 0 1 -.57-9.37l5.87 4.06a18.3 18.3 0 0 0 32.6-11.41z"/><path d="m201 164.78c1.66.38 3.33.81 5 1.31q-4.23 1.73-8.48 3.45 1.71-2.45 3.48-4.76z"/><path d="m290.62 136.88c.42 2.74.73 5.49.88 8.29a73.74 73.74 0 0 0 -83.5 22.77l-2-1.84c-1.65-.51-3.32-.94-5-1.31a82.24 82.24 0 0 1 79.21-30.49 77.9 77.9 0 0 1 10.41 2.58z"/><path d="m197.13 171.52a61.87 61.87 0 0 1 6.9 1.81c1.24-1.86 2.56-3.66 4-5.4a73.74 73.74 0 0 1 83.52-22.77c.05 1 .1 2 .11 3a71.59 71.59 0 0 0 -12.18-3.53c-27.71-5.43-56.55 7.06-72.31 30.26-1.9 2.78-5.19 4.62-8.59 3.84l-.53-.14c-20.48-6.31-42.8-1.68-58.35 12.48l-.5-.83a62.28 62.28 0 0 1 58-18.77z"/><path d="m306.62 149.53c0-.14 0-.27 0-.41.01.14.01.28 0 .41z"/><path d="m339.29 198.92-.66 1.94a44.76 44.76 0 0 0 -4.78-1.31 7.55 7.55 0 0 1 -5.24-5.24 66.87 66.87 0 0 0 -22.91-32.59c.27-1.91.47-3.83.62-5.76 1.13.76 2.23 1.56 3.31 2.39a72.06 72.06 0 0 1 24.6 34.88 6.76 6.76 0 0 0 5.06 5.69z"/></g></svg>