<svg viewBox="0 0 500 500" xmlns="http://www.w3.org/2000/svg"><path d="m382.67 278.93a129.71 129.71 0 0 1 -29.14 4.07 59.66 59.66 0 0 1 9 20.22 121 121 0 0 0 20.14-24.29z" fill="#f4ec90"/><path d="m367.51 161.34a10.47 10.47 0 0 0 -2 .68c-.64.23-1.27.48-1.9.73a6.79 6.79 0 0 0 5.3 6.51c-3.35-.91 4.19-8.59-1.4-7.92z" fill="#231815"/><path d="m363.59 162.74c-1.07.43-2.13.87-3.18 1.35-.66.3-1.29.63-1.92 1a54.14 54.14 0 0 0 10.4 4.2 6.79 6.79 0 0 1 -5.3-6.55z" fill="#231815"/><path d="m363.59 162.74c.63-.25 1.26-.5 1.9-.73a10.47 10.47 0 0 1 2-.68c5.59-.67-2 7 1.38 7.91 9.3 2.66 13.27-11.81 4-14.46-5.75-1.55-9.47 3.38-9.28 7.96z" fill="#231815"/><path d="m228.5 101.6a127.92 127.92 0 0 0 -5.81 17.4 122.38 122.38 0 0 1 16.83-8.9z" fill="#231815"/><path d="m391.56 262.11a123.46 123.46 0 0 1 -8.88 16.82 127.85 127.85 0 0 0 17.32-5.81z" fill="#231815"/><path d="m362.53 303.22q-3.15 2.91-6.49 5.58a51.55 51.55 0 0 1 -.68 18.83q4.34-2.82 8.45-6a57.16 57.16 0 0 0 -1.28-18.41z" fill="#231815"/><path d="m396 258.65c6.81-2.84 10.67 5.93 8.47 11a131.82 131.82 0 0 1 -40.71 52 57.25 57.25 0 0 0 -1.27-18.43 120.8 120.8 0 0 0 20.14-24.28 129 129 0 0 0 17.37-5.82q-4.23-5.5-8.47-11l-.55-1.48q2.56-.93 5.02-1.99z" fill="#231815"/><path d="m391 260.62.55 1.48a122.77 122.77 0 0 1 -8.88 16.83 130.35 130.35 0 0 1 -29.15 4.07 60.56 60.56 0 0 0 -15.75-15.69 119.18 119.18 0 0 0 53.23-6.69z" fill="#231815"/><path d="m372.87 154.78a10.71 10.71 0 0 1 7.71 11.75c-.71 5.27-4.46 7.66-9.08 9.27-9.45 3.28-17.06 9.31-21.79 18.22-2 3.72-2.43 8.45-5.21 11.66a10.64 10.64 0 0 1 -12.16 2.72c-5-2.13-5.66-6.52-7.44-11a36 36 0 0 0 -5.86-9.89 37.88 37.88 0 0 0 -10.21-8.51c-3.48-2-7.46-2.6-10.91-4.51a10.74 10.74 0 0 1 -5.2-12.21c1.25-4.54 4.71-6.47 8.83-7.84a37.27 37.27 0 0 0 19.66-14.62c4.45-6.8 5.18-19.28 15.76-18.86 9.9.38 10.56 12.27 14.87 18.86a37.06 37.06 0 0 0 21 15c-5.76-1.55-9.48 3.37-9.28 8-1.07.42-2.14.87-3.18 1.34-.66.3-1.29.63-1.93 1a52.47 52.47 0 0 1 -21.92-21.87 60.88 60.88 0 0 0 2.55-5.71c.49-1.26 1.58-3.32 1.57-4.73h-8.31c.13.46.27.92.4 1.38a15.31 15.31 0 0 0 1.17 3.35 52.83 52.83 0 0 0 2.62 5.71c-.63 1.22-1.29 2.42-2 3.59a53.76 53.76 0 0 1 -14.61 15.18 42.72 42.72 0 0 1 -5.27 3.16 54.93 54.93 0 0 0 -7.76-3.33 10.45 10.45 0 0 0 -2.74-.83v4.15q-2 5.08.69 4c1.38 0 3.4-1.11 4.71-1.63 1.73-.7 3.44-1.47 5.1-2.32a53.32 53.32 0 0 1 11.13 7.79 50.31 50.31 0 0 1 10.71 14c-1.54 2.79-3.32 6.16-3.73 9.17-.35 2.52-2.14 1.37 3.76 1.37 4.85 0 4.52 1 3.54-2a59.64 59.64 0 0 0 -2.26-5.78c-.4-.92-.85-1.82-1.31-2.71l.59-1.08a51.08 51.08 0 0 1 13.39-15.6 52.13 52.13 0 0 1 8-5.19 53.85 53.85 0 0 0 10.41 4.2c9.3 2.48 13.27-11.99 3.99-14.65z" fill="#231815"/><path d="m363.8 321.64c-.06.55-.1 1.09-.16 1.63a59.9 59.9 0 0 1 -58.8 52.34c-4.87.07-7.28-3.71-7.24-7.5h7.24a51.76 51.76 0 0 0 50.51-40.48q4.34-2.83 8.45-5.99z" fill="#231815"/><path d="m353.52 283a59.62 59.62 0 0 1 9 20.22q-3.15 2.91-6.5 5.59a51.48 51.48 0 0 0 -11.73-25.91c3.08.1 6.16.17 9.23.1z" fill="#231815"/><path d="m356 308.8a51 51 0 0 1 .56 7.57 52.29 52.29 0 0 1 -1.24 11.26c-3.12 2-6.32 3.92-9.6 5.67a43 43 0 0 0 3.05-11.39 43.61 43.61 0 0 0 .25-8q3.62-2.41 6.98-5.11z" fill="#231815"/><path d="m344.3 282.89a51.48 51.48 0 0 1 11.7 25.91q-3.39 2.7-7 5.14a44.31 44.31 0 0 0 -17-32.17q6.15.84 12.3 1.12z" fill="#231815"/><path d="m353.52 283c-3.07.08-6.15 0-9.22-.1a51.76 51.76 0 0 0 -29.12-17.24c-.34-1.11-.71-2.2-1.11-3.28a118.31 118.31 0 0 0 23.7 4.93 60.56 60.56 0 0 1 15.75 15.69z" fill="#231815"/><path d="m358.48 165a52.13 52.13 0 0 0 -8 5.19 51.08 51.08 0 0 0 -13.39 15.6l-.59 1.08a50.31 50.31 0 0 0 -10.71-14 53.32 53.32 0 0 0 -11.13-7.79 42.72 42.72 0 0 0 5.27-3.16 53.76 53.76 0 0 0 14.61-15.18c.73-1.17 1.39-2.37 2-3.59a52.47 52.47 0 0 0 21.94 21.85z" fill="#fff"/><path d="m349.05 313.94a43.61 43.61 0 0 1 -.25 8 43 43 0 0 1 -3.05 11.39 45.15 45.15 0 0 1 -40.91 27.31c-4.78.07-7.19 3.79-7.24 7.5h-126.17c0-3.72-2.44-7.44-7.24-7.5-24.5-.27-46.36-16.59-52.83-40.4a55.21 55.21 0 0 1 25.64-61.84 53.3 53.3 0 0 1 20.47-6.75 57.21 57.21 0 0 1 16.1.4 60.17 60.17 0 0 1 7.86 1.86c3.34 1 6.63-.74 8.47-3.45a67.39 67.39 0 0 1 48.69-28.94 63 63 0 0 1 18.46.84l.29.06a67.07 67.07 0 0 1 47.12 36.4 65.72 65.72 0 0 1 3.54 8.82 7.52 7.52 0 0 0 5.24 5.24 46.31 46.31 0 0 1 18.87 8.89 44.31 44.31 0 0 1 16.94 32.17z" fill="#d8bf9e"/><path d="m345.75 333.3c3.28-1.75 6.48-3.65 9.6-5.67a51.76 51.76 0 0 1 -50.51 40.48h-7.24c.05-3.71 2.46-7.43 7.24-7.5a45.15 45.15 0 0 0 40.91-27.31z" fill="#231815"/><path d="m340.68 132.73c0 1.41-1.08 3.47-1.57 4.73a60.88 60.88 0 0 1 -2.55 5.71 52.83 52.83 0 0 1 -2.62-5.71 15.31 15.31 0 0 1 -1.17-3.35c-.13-.46-.27-.92-.4-1.38z" fill="#231815"/><path d="m340.07 195.4c1 3.06 1.31 2-3.54 2-5.9 0-4.11 1.15-3.76-1.37.41-3 2.19-6.38 3.73-9.17.46.89.91 1.79 1.31 2.71a59.64 59.64 0 0 1 2.26 5.83z" fill="#231815"/><path d="m344.3 282.89q-6.15-.27-12.24-1.12a46.31 46.31 0 0 0 -18.87-8.89 7.52 7.52 0 0 1 -5.24-5.24 65.72 65.72 0 0 0 -3.54-8.82c3.17 1.33 6.4 2.51 9.66 3.55.4 1.08.77 2.17 1.11 3.28a51.76 51.76 0 0 1 29.12 17.24z" fill="#231815"/><path d="m320.9 259.37a59.07 59.07 0 0 1 16.87 7.93 118.31 118.31 0 0 1 -23.7-4.93 73.73 73.73 0 0 0 -62.54-48.3q-2.36-3.76-4.41-7.66a81.78 81.78 0 0 1 12.49 1.23c28.13 4.94 51.25 25.4 61.29 51.73-1.22-.35-2.46-.68-3.72-.95l5.24 5.24c-.42-1.45-.98-2.87-1.52-4.29z" fill="#231815"/><path d="m322.42 263.66-5.24-5.24c1.26.27 2.5.6 3.72.95.54 1.42 1.1 2.84 1.52 4.29z" fill="#231815"/><path d="m314.66 165.1c-1.66.85-3.37 1.62-5.1 2.32-1.31.52-3.33 1.67-4.71 1.63q-2.69 1.13-.69-4v-4.15a10.45 10.45 0 0 1 2.74.83 54.93 54.93 0 0 1 7.76 3.37z" fill="#231815"/><path d="m314.07 262.37c-3.26-1-6.49-2.22-9.66-3.55a67.07 67.07 0 0 0 -47.12-36.4c-2.05-2.72-4-5.5-5.76-8.35a73.73 73.73 0 0 1 62.54 48.3z" fill="#231815"/><path d="m257.29 222.42-.29-.06a63 63 0 0 0 -18.46-.84c-1.43-2.31-2.77-4.66-4.05-7a74.12 74.12 0 0 1 10.27-.72c2.28 0 4.54.12 6.77.32 1.78 2.8 3.71 5.58 5.76 8.3z" fill="#231815"/><path d="m247.12 206.41q2.06 3.9 4.41 7.66c-2.23-.2-4.49-.32-6.77-.32a74.12 74.12 0 0 0 -10.27.72q-1.81-3.37-3.42-6.84a80.87 80.87 0 0 1 16.05-1.22z" fill="#231815"/><path d="m247.12 206.41a80.87 80.87 0 0 0 -16 1.22 132.47 132.47 0 0 1 -8.43-88.63 122.7 122.7 0 0 1 16.83-8.9l1.47.55a118.46 118.46 0 0 0 6.13 95.76z" fill="#231815"/><path d="m231.94 97.11c5.14-2.22 13.88 1.63 11 8.47-.7 1.67-1.35 3.34-2 5l-1.47-.55-11-8.47-1.14-2.38c1.54-.71 3.07-1.4 4.61-2.07z" fill="#231815"/><path d="m234.49 214.47c1.28 2.39 2.62 4.74 4.05 7a67.39 67.39 0 0 0 -48.69 28.94c-1.84 2.71-5.13 4.47-8.47 3.45a60.17 60.17 0 0 0 -7.86-1.86c-.83-2.63-1.57-5.3-2.21-8a62.77 62.77 0 0 1 12.07 2.61 73.69 73.69 0 0 1 51.11-32.14z" fill="#231815"/><path d="m231.07 207.63q1.6 3.47 3.42 6.84a73.69 73.69 0 0 0 -51.11 32.2 62.77 62.77 0 0 0 -12.07-2.61c-.6-2.49-1.12-5-1.56-7.54a70.48 70.48 0 0 1 10.64 1.6c-1.21 1.54-2.38 3.13-3.49 4.77l8.47-3.45c-1.65-.51-3.31-.94-5-1.32a82.65 82.65 0 0 1 50.7-30.49z" fill="#231815"/><path d="m227.36 99.21 1.14 2.38a126.92 126.92 0 0 0 -5.81 17.41 116.94 116.94 0 0 0 -50.69 68 114.54 114.54 0 0 0 -2.22 49.54 71.06 71.06 0 0 0 -15.37.57 131.18 131.18 0 0 1 73-137.88z" fill="#231815"/><path d="m222.69 119a132.47 132.47 0 0 0 8.38 88.67 82.65 82.65 0 0 0 -50.68 30.49 70.48 70.48 0 0 0 -10.64-1.6 114.54 114.54 0 0 1 2.25-49.56 116.94 116.94 0 0 1 50.69-68z" fill="#f4ec90"/><g fill="#231815"><path d="m185.37 239.44-8.47 3.45c1.11-1.64 2.28-3.23 3.49-4.77 1.67.38 3.33.81 4.98 1.32z"/><path d="m171.31 244.06c.64 2.69 1.38 5.36 2.21 8a57.21 57.21 0 0 0 -16.1-.4q-1-3.68-1.77-7.41a63.47 63.47 0 0 1 8.54-.59 62 62 0 0 1 7.12.4z"/><path d="m171.43 368.11c0 3.78-2.37 7.56-7.24 7.5a70.85 70.85 0 0 1 -47.41-18.61c-23.29-21.42-28.78-57.13-13.67-84.79a69.72 69.72 0 0 1 51.27-35.12c.36 2.39.78 4.78 1.27 7.15a62.23 62.23 0 0 0 8.54 123.87z"/><path d="m171.43 368.11h-7.24a62.23 62.23 0 0 1 -8.54-123.87q.78 3.74 1.77 7.41a53.3 53.3 0 0 0 -20.42 6.75 55.21 55.21 0 0 0 -25.59 61.81c6.47 23.81 28.33 40.13 52.83 40.4 4.76.06 7.16 3.78 7.19 7.5z"/><path d="m169.75 236.52c.44 2.53 1 5.05 1.56 7.54a62 62 0 0 0 -7.12-.41 63.47 63.47 0 0 0 -8.54.59c-.49-2.37-.91-4.76-1.27-7.15a71.06 71.06 0 0 1 15.37-.57z"/><path d="m175.1 347.33c9.65 0 9.67-15 0-15s-9.67 15 0 15z"/><path d="m203 347.33c9.65 0 9.67-15 0-15s-9.67 15 0 15z"/><path d="m230.8 347.33c9.65 0 9.67-15 0-15s-9.67 15 0 15z"/><path d="m258.65 347.33c9.65 0 9.67-15 0-15s-9.67 15 0 15z"/><path d="m286.5 347.33c9.65 0 9.67-15 0-15s-9.67 15 0 15z"/><path d="m208.11 403.91c9.65 0 9.67-15 0-15s-9.67 15 0 15z"/><path d="m236 403.91c9.65 0 9.67-15 0-15s-9.67 15 0 15z"/><path d="m263.8 403.91c9.65 0 9.67-15 0-15s-9.67 15 0 15z"/><path d="m291.65 403.91c9.65 0 9.67-15 0-15s-9.67 15 0 15z"/><path d="m319.5 403.91c9.65 0 9.67-15 0-15s-9.67 15 0 15z"/><path d="m190.36 375.62c9.65 0 9.67-15 0-15s-9.67 15 0 15z"/><path d="m220.12 375.62c9.65 0 9.67-15 0-15s-9.67 15 0 15z"/><path d="m249.87 375.62c9.65 0 9.67-15 0-15s-9.67 15 0 15z"/><path d="m279.63 375.62c9.65 0 9.67-15 0-15s-9.67 15 0 15z"/></g></svg>