<svg viewBox="0 0 500 500" xmlns="http://www.w3.org/2000/svg"><circle cx="250" cy="250" fill="#f8b62d" r="84.8"/><g fill="#231815"><path d="m327.3 250c-.26 31.93-20.27 61.69-50.61 72.59a78.28 78.28 0 0 1 -86.62-23.7c-20.52-24.83-22.88-61.14-6.38-88.66s49.76-42.55 81.4-36.08a78.17 78.17 0 0 1 62.21 75.85c.08 9.65 15.08 9.67 15 0a93.46 93.46 0 0 0 -61-86.83c-36.08-13.29-78.52-1.52-102.67 28.34s-27.79 72.65-7.9 105.83c20 33.39 59.57 50.62 97.68 43.11 42.75-8.45 73.59-47.29 73.89-90.45.08-9.65-14.92-9.66-15 0z"/><path d="m257.5 131.39v-32c0-9.65-15-9.67-15 0v32c0 9.65 15 9.67 15 0z"/><path d="m190.69 147.28-15.98-27.69"/><path d="m197.17 143.49-16-27.69c-4.83-8.36-17.79-.81-13 7.57l16 27.69c4.83 8.36 17.79.81 13-7.57z"/><path d="m147.28 190.69-27.69-15.98"/><path d="m151.06 184.22-27.69-16c-8.38-4.84-15.94 8.12-7.57 13l27.69 16c8.38 4.84 15.94-8.12 7.57-13z"/><path d="m131.39 250h-31.97"/><path d="m131.39 242.5h-32c-9.65 0-9.67 15 0 15h32c9.65 0 9.67-15 0-15z"/><path d="m147.28 309.31-27.69 15.98"/><path d="m143.49 302.83-27.69 16c-8.36 4.83-.81 17.79 7.57 13l27.69-16c8.36-4.83.81-17.79-7.57-13z"/><path d="m190.69 352.72-15.98 27.69"/><path d="m184.22 348.94-16 27.69c-4.84 8.38 8.12 15.94 13 7.57l16-27.69c4.84-8.38-8.12-15.94-13-7.57z"/><path d="m250 368.61v31.97"/><path d="m242.5 368.61v32c0 9.65 15 9.67 15 0v-32c0-9.65-15-9.67-15 0z"/><path d="m309.31 352.72 15.98 27.69"/><path d="m302.83 356.51 16 27.69c4.83 8.36 17.79.81 13-7.57l-16-27.69c-4.83-8.36-17.79-.81-13 7.57z"/><path d="m352.72 309.31 27.69 15.98"/><path d="m348.94 315.78 27.69 16c8.38 4.84 15.94-8.12 7.57-13l-27.69-16c-8.38-4.84-15.94 8.12-7.57 13z"/><path d="m368.61 250h31.97"/><path d="m368.61 257.5h32c9.65 0 9.67-15 0-15h-32c-9.65 0-9.67 15 0 15z"/><path d="m352.72 190.69 27.69-15.98"/><path d="m356.51 197.17 27.69-16c8.36-4.83.81-17.79-7.57-13l-27.69 16c-8.36 4.83-.81 17.79 7.57 13z"/><path d="m309.31 147.28 15.98-27.69"/><path d="m315.78 151.06 16-27.69c4.84-8.38-8.12-15.94-13-7.57l-16 27.69c-4.84 8.38 8.12 15.94 13 7.57z"/></g><text style="font-size:161.72;fill:#fff;stroke:#231815;stroke-miterlimit:10;font-family:DINAlternate-Bold, DIN Alternate;font-weight:700" transform="translate(-3.4 -30.77)"><tspan letter-spacing="-.02em"/><tspan letter-spacing="-.07em" x="98.94" y="0"/><tspan x="185.56" y="0"/></text></svg>