<svg viewBox="0 0 500 500" xmlns="http://www.w3.org/2000/svg"><g stroke="#231815" stroke-miterlimit="10"><path d="m236.75 272.11a82.26 82.26 0 0 1 79.25-30.47 76.19 76.19 0 0 1 10.36 2.59 82.65 82.65 0 0 0 -64.92-68.08c-33.33-6.75-68.27 8.85-85.8 37.85a83 83 0 0 0 -4.41 76.58c.47-.46.94-.92 1.42-1.37a70.52 70.52 0 0 1 64.1-17.1z" fill="#f8b62d"/><path d="m171.23 290.58a83 83 0 0 1 4.41-76.58c17.54-28.95 52.48-44.6 85.76-37.86a82.65 82.65 0 0 1 64.92 68.08 78.27 78.27 0 0 1 15.84 7.19 98 98 0 0 0 -63.86-86.09c-37.69-13.82-81.9-1.62-107.27 29.43-25 30.6-29.26 74.3-10 108.8a67.76 67.76 0 0 1 10.2-12.97z" fill="#231815"/><path d="m253.07 131.54v-33.65c0-9.65-15-9.67-15 0v33.65c0 9.65 15 9.67 15 0z" fill="#231815"/><path d="m176.66 152.05c4.83 8.36 17.79.81 13-7.57l-16.83-29.15c-4.83-8.36-17.79-.81-13 7.57zm6.48-3.79-16.83-29.15z" fill="#231815"/><path d="m141.22 187.49-29.15-16.83c-8.37-4.84-15.94 8.12-7.57 13l29.15 16.83c8.35 4.79 15.94-8.17 7.57-13zm-32.93-10.35 29.15 16.86z" fill="#231815"/><path d="m87.06 263.9h33.65c9.65 0 9.67-15 0-15h-33.65c-9.66 0-9.67 15 0 15z" fill="#231815"/><path d="m112.08 342.13 29.15-16.83c8.36-4.83.81-17.79-7.57-13l-29.15 16.83c-8.36 4.87-.82 17.87 7.57 13zm25.36-23.3-29.15 16.83z" fill="#231815"/><path d="m370.42 263.9h33.65c9.65 0 9.67-15 0-15h-33.65c-9.65 0-9.67 15 0 15z" fill="#231815"/><path d="m357.48 200.44 29.15-16.83c8.36-4.83.81-17.79-7.57-13l-29.15 16.83c-8.36 4.88-.81 17.84 7.57 13zm25.36-23.3-29.14 16.86z" fill="#231815"/><path d="m314.47 152.05 16.83-29.15c4.84-8.37-8.12-15.94-13-7.57l-16.83 29.15c-4.79 8.38 8.17 15.94 13 7.57zm10.35-32.93-16.82 29.15z" fill="#231815"/><path d="m377.25 293.37c.54 1.41 1.05 2.84 1.51 4.29a7.08 7.08 0 0 1 .16 4.09 51.75 51.75 0 0 1 -17.73 100.37h-140.65a62.23 62.23 0 0 1 -55-91.35c-1-1.44-1.95-2.9-2.86-4.4-.56-.93-1.1-1.87-1.62-2.81a71.25 71.25 0 0 0 -9.23 48 69.75 69.75 0 0 0 38.58 51.19c11.68 5.47 23.78 6.86 36.45 6.86h123.45c9.8 0 19.5.28 29-2.82 24.63-8.06 41.85-31.83 41.13-57.87a59.93 59.93 0 0 0 -43.19-55.55z" fill="#231815"/><path d="m220.54 277.65a62.16 62.16 0 0 1 19.18 3 73.75 73.75 0 0 1 87.48-28.16 82.09 82.09 0 0 0 -.89-8.29 76.19 76.19 0 0 0 -10.31-2.56 82.26 82.26 0 0 0 -79.21 30.47c1.67.38 3.32.82 5 1.33l-8.47 3.45q1.68-2.46 3.5-4.78a70.52 70.52 0 0 0 -64.11 17.1c-.48.45-1 .91-1.42 1.38a78.51 78.51 0 0 0 3.63 7.06 62.05 62.05 0 0 1 45.62-20z" fill="#231815"/><path d="m241.72 273.44c-1.65-.51-3.3-.95-5-1.33q-1.82 2.32-3.5 4.78z" fill="#231815"/><path d="m342.22 260.28a74 74 0 0 1 26.78 32.48 7.49 7.49 0 0 1 4.52-.35c1.26.27 2.5.6 3.73 1a83.68 83.68 0 0 0 -35.1-42c.1 1.65.17 3.31.18 5-.01 1.29-.05 2.59-.11 3.87z" fill="#231815"/><path d="m369 292.76a73 73 0 0 1 2.53 6.89 51.3 51.3 0 0 1 7.39 2.1 7.08 7.08 0 0 0 -.16-4.09c-.46-1.45-1-2.87-1.51-4.29-1.23-.35-2.47-.68-3.73-1a7.49 7.49 0 0 0 -4.52.39z" fill="#231815"/><path d="m342.33 256.4c.06-8.29-11-9.46-14.15-3.5a73.42 73.42 0 0 1 13.39 7 7.44 7.44 0 0 0 .76-3.5z" fill="#231815"/><path d="m342.22 260.28c.06-1.29.11-2.59.12-3.89a7.44 7.44 0 0 1 -.77 3.46z" fill="#231815"/><path d="m165.54 310.77a62.36 62.36 0 0 1 9.32-13.13 78.51 78.51 0 0 1 -3.63-7.06 67.76 67.76 0 0 0 -10.17 13c.53.94 1.06 1.88 1.62 2.81.91 1.48 1.88 2.94 2.86 4.38z" fill="#231815"/><path d="m327.21 252.51 1 .38c3.17-6 14.22-4.79 14.15 3.5 0-1.67-.08-3.33-.18-5a78.27 78.27 0 0 0 -15.84-7.19 82.09 82.09 0 0 1 .87 8.31z" fill="#231815"/></g><path d="m405.36 347.5c1 19.06-10.19 37.28-28.18 44.17-8.12 3.11-16.25 2.95-24.71 2.95h-115.47c-5.48 0-11 .05-16.45 0a54.71 54.71 0 0 1 -50-77.11 53.89 53.89 0 0 1 6-10.38c.78-1.05 1.59-2.06 2.44-3 14.38-16.69 37.56-22.69 58.65-16.18 3.34 1 6.63-.74 8.47-3.45 14.64-21.53 41.42-33.13 67.15-28.1a66.85 66.85 0 0 1 13.82 4.31c.87.38 1.73.77 2.57 1.18s1.94 1 2.89 1.49a67 67 0 0 1 31.6 38.11 6.37 6.37 0 0 0 5.31 5.44c19.48 4.16 34.8 20.35 35.91 40.57z" fill="#fff"/><path d="m378.92 301.75a51.75 51.75 0 0 1 -17.73 100.37h-140.65a62.24 62.24 0 1 1 19.18-121.44 73.75 73.75 0 0 1 87.48-28.16l1 .38a72.34 72.34 0 0 1 13.39 7c.22.14.44.28.65.43a73.93 73.93 0 0 1 26.76 32.44c.95 2.24 1.8 4.54 2.53 6.89a50.84 50.84 0 0 1 7.39 2.09zm-1.74 89.92c18-6.89 29.22-25.11 28.18-44.17-1.11-20.22-16.43-36.41-35.82-40.61a6.37 6.37 0 0 1 -5.31-5.44 67 67 0 0 0 -31.6-38.11c-1-.52-1.91-1-2.89-1.49s-1.7-.8-2.57-1.18a66.85 66.85 0 0 0 -13.82-4.31c-25.73-5-52.51 6.57-67.15 28.1-1.84 2.71-5.13 4.48-8.47 3.45-21.09-6.51-44.27-.51-58.65 16.18-.85 1-1.66 2-2.44 3a53.89 53.89 0 0 0 -6 10.38 54.71 54.71 0 0 0 50 77.11c5.48.05 11 0 16.45 0h115.38c8.46.04 16.59.2 24.71-2.91z" fill="#231815"/></svg>