<svg viewBox="0 0 500 500" xmlns="http://www.w3.org/2000/svg"><path d="m332.64 226.52a67.93 67.93 0 0 1 8.76 5.72 66.91 66.91 0 0 1 22.91 32.59 7.52 7.52 0 0 0 5.24 5.24c22.53 4.89 38.5 25.75 35.6 49-2.74 22.09-22 38.41-43.95 38.7-4.78.07-7.2 3.78-7.24 7.5h-25.29l4.78-4.82 11.94-12c4.57-4.6 1.21-12.8-5.31-12.8h-18l12.06-18c3.23-4.82-1.06-11.29-6.48-11.29-12.94 0-25.94-.38-38.9-.16-2.27 0-4.55.08-6.82.16-4.63.16-7.06 2.82-9.07 6.11-1 1.58-1.86 3.31-2.84 5l-14.89 25.41-10.81 18.45a7.2 7.2 0 0 0 -1 4h-15.54c0-3.72-2.44-7.44-7.24-7.5-24.5-.27-46.36-16.6-52.84-40.4a54.66 54.66 0 0 1 3-36.61 55.56 55.56 0 0 1 8.47-13.42 54.19 54.19 0 0 1 14.14-11.78c13.59-7.83 29.55-9.09 44.44-4.5 3.34 1 6.62-.73 8.47-3.44 14.64-21.54 41.42-33.14 67.15-28.1a67.43 67.43 0 0 1 13.82 4.3c.87.38 1.73.77 2.57 1.19s1.92.93 2.87 1.45z" fill="#dcdddd"/><path d="m236.75 235.31a82.25 82.25 0 0 1 79.25-30.49 77.68 77.68 0 0 1 10.36 2.59 81.11 81.11 0 0 1 .89 8.29 73.74 73.74 0 0 0 -83.52 22.76l-2-1.83c-1.65-.51-3.32-.94-4.98-1.32z" fill="#231815"/><path d="m379.06 133.85c8.38-4.85 15.94 8.15 7.57 12.95l-29.14 16.83c-8.39 4.84-15.93-8.13-7.58-13z" fill="#231815"/><path d="m179.16 267.37a55.56 55.56 0 0 0 -8.47 13.42q-2.72-3.29-5.14-6.84a62.33 62.33 0 0 1 9.31-13.13 75.29 75.29 0 0 0 4.3 6.55z" fill="#231815"/><path d="m141.23 150.68c8.37 4.83.8 17.79-7.57 13l-29.15-16.88c-8.36-4.83-.8-17.78 7.57-12.95z" fill="#231815"/><path d="m341.57 223a7.37 7.37 0 0 0 .76-2.89c0 1.11-.06 2.22-.11 3.32z" fill="#231815"/><path d="m404.08 212.08c9.67 0 9.65 15 0 15h-33.65c-9.67 0-9.65-15 0-15z" fill="#231815"/><path d="m120.72 212.08c9.66 0 9.65 15 0 15h-33.66c-9.67 0-9.65-15 0-15z" fill="#231815"/><path d="m341.4 232.24c.41-2.89.68-5.82.82-8.77a73.9 73.9 0 0 1 29.32 39.37 51.75 51.75 0 0 1 -10.34 102.46h-7.2c0-3.72 2.46-7.43 7.24-7.5 22-.29 41.21-16.61 43.95-38.7 2.9-23.28-13.07-44.14-35.6-49a7.52 7.52 0 0 1 -5.24-5.24 66.91 66.91 0 0 0 -22.95-32.62z" fill="#231815"/><path d="m328.18 216.08c3.1-5.82 13.72-4.84 14.15 2.94v.56.07.42.08a7.37 7.37 0 0 1 -.76 2.89 73 73 0 0 0 -13.39-6.96z" fill="#231815"/><path d="m327.21 215.7 1 .38a7.48 7.48 0 0 0 -.84 3.5c-.04-1.3-.09-2.58-.16-3.88z" fill="#231815"/><path d="m342.33 220.07c0-.14 0-.28 0-.42.01.14.01.28 0 .42z" fill="#231815"/><path d="m189.62 107.67c4.84 8.38-8.13 15.93-13 7.57l-16.78-29.15c-4.84-8.38 8.16-15.92 12.95-7.57z" fill="#231815"/><path d="m342.33 219c-.43-7.78-11.05-8.76-14.15-2.94l-1-.38a81.11 81.11 0 0 0 -.89-8.29 78.41 78.41 0 0 1 15.84 7.2c.11 1.48.17 2.96.2 4.41z" fill="#231815"/><path d="m278.3 128.52a97.94 97.94 0 0 1 63.86 86.09 78.41 78.41 0 0 0 -15.84-7.2 82.66 82.66 0 0 0 -64.92-68.08c-33.28-6.75-68.22 8.91-85.76 37.86a83 83 0 0 0 -4.39 76.62 68.43 68.43 0 0 0 -10.25 12.88c-19.27-34.49-15-78.16 10-108.75 25.4-31.05 69.61-43.24 107.3-29.42z" fill="#231815"/><path d="m412.95 313.55a51.77 51.77 0 0 0 -41.41-50.71 73.9 73.9 0 0 0 -29.32-39.37c.05-1.1.1-2.21.11-3.32v-.08c0-.14 0-.28 0-.42v-.07c0-.19 0-.38 0-.56 0-1.47-.09-2.95-.17-4.41a83.62 83.62 0 0 1 35.1 42c-1.23-.35-2.47-.68-3.73-1l5.24 5.24c-.46-1.45-1-2.88-1.51-4.29 27.43 7.88 46.27 35.15 42.73 63.9a59.9 59.9 0 0 1 -58.79 52.34c-4.88.07-7.29-3.71-7.24-7.5h7.24a51.75 51.75 0 0 0 51.75-51.75z" fill="#231815"/><path d="m261.4 139.33a82.66 82.66 0 0 1 64.92 68.08 77.68 77.68 0 0 0 -10.32-2.59 82.25 82.25 0 0 0 -79.21 30.49 71.07 71.07 0 0 0 -65.5 18.5 83 83 0 0 1 4.39-76.62c17.5-28.95 52.44-44.61 85.72-37.86z" fill="#f8b62d"/><path d="m377.26 256.56c.54 1.41 1 2.84 1.51 4.29l-5.24-5.24c1.26.27 2.47.6 3.73.95z" fill="#231815"/><path d="m328.18 216.08a73 73 0 0 1 13.39 7c-1.63 3.23-5.6 4.39-8.93 3.48-1-.52-1.91-1-2.89-1.48a7 7 0 0 1 -2.41-5.46 7.48 7.48 0 0 1 .84-3.54z" fill="#231815"/><path d="m332.64 226.52c3.33.91 7.3-.25 8.93-3.48l.65.43c-.14 2.95-.41 5.88-.82 8.77a67.93 67.93 0 0 0 -8.76-5.72z" fill="#231815"/><path d="m327.34 219.58a7 7 0 0 0 2.41 5.46c-.84-.42-1.7-.81-2.57-1.19.08-1.42.15-2.85.16-4.27z" fill="#231815"/><path d="m236.75 235.31c1.66.38 3.33.81 5 1.32l-8.47 3.45c1.09-1.64 2.26-3.23 3.47-4.77z" fill="#231815"/><path d="m171.25 253.81a71.07 71.07 0 0 1 65.5-18.5c-1.21 1.54-2.38 3.13-3.49 4.77l-.42 2a62.27 62.27 0 0 0 -58 18.77q-1.96-3.45-3.59-7.04z" fill="#231815"/><path d="m318.35 78.52c4.83-8.36 17.79-.8 12.95 7.57l-16.82 29.15c-4.83 8.37-17.79.8-13-7.57z" fill="#231815"/><path d="m162.69 269.55c.91 1.5 1.87 3 2.86 4.4a62.24 62.24 0 0 0 55 91.35h7.24c0 3.78-2.38 7.56-7.24 7.5a70.88 70.88 0 0 1 -47.42-18.61c-23.29-21.42-28.82-57.14-13.66-84.79.5-.92 1-1.82 1.57-2.71.53.96 1.08 1.92 1.65 2.86z" fill="#231815"/><path d="m165.55 273.95q2.43 3.56 5.14 6.84a54.66 54.66 0 0 0 -3 36.61c6.48 23.8 28.34 40.13 52.84 40.4 4.8.06 7.21 3.78 7.24 7.5h-7.24a62.24 62.24 0 0 1 -55-91.35z" fill="#231815"/><path d="m193.3 255.59a54.19 54.19 0 0 0 -14.14 11.78 75.29 75.29 0 0 1 -4.3-6.55 62.27 62.27 0 0 1 58-18.77 60.56 60.56 0 0 1 6.89 1.8q1.86-2.79 4-5.4a73.74 73.74 0 0 1 83.52-22.76c.07 1.29.12 2.58.13 3.88s-.08 2.85-.16 4.27a67.43 67.43 0 0 0 -13.82-4.3c-25.73-5-52.51 6.56-67.15 28.1-1.85 2.71-5.13 4.47-8.47 3.44-14.95-4.58-30.91-3.32-44.5 4.51z" fill="#231815"/><path d="m253.07 61.07v33.66c0 9.67-15 9.65-15 0v-33.66c0-9.66 15-9.65 15 0z" fill="#231815"/><path d="m133.66 275.54c8.38-4.85 15.93 8.12 7.57 13l-29.15 16.82c-8.38 4.84-15.92-8.12-7.57-12.95z" fill="#231815"/><path d="m171.25 253.81q1.64 3.58 3.61 7a62.33 62.33 0 0 0 -9.31 13.13c-1-1.44-1.95-2.9-2.86-4.4-.57-.94-1.12-1.9-1.65-2.86a68.43 68.43 0 0 1 10.21-12.87z" fill="#231815"/><path d="m241.73 236.63 2 1.83q-2.1 2.61-4 5.4a60.56 60.56 0 0 0 -6.89-1.8l.42-2z" fill="#231815"/><path d="m307.54 365.3-35.48 35.77 15.86-32.19a8.36 8.36 0 0 0 .85-3.58z" fill="#faee00"/><path d="m328.67 365.3-77.54 78.18a6.17 6.17 0 0 1 -6.86 2.89c-4.79-.8-8.68-6.63-5.58-11.4l30.72-62.37h-18.61a7.58 7.58 0 0 1 -7.46-7.3h45.43a8.36 8.36 0 0 1 -.85 3.58l-15.86 32.19 35.48-35.77z" fill="#231815"/><path d="m322.08 350.64q-7.26 7.33-14.54 14.66h-18.77a7.3 7.3 0 0 0 -7.33-7.7h-17.55l21.24-36.25h28.5l-12.07 18c-3.22 4.82 1.06 11.29 6.48 11.29z" fill="#faee00"/><path d="m340.08 335.64c6.52 0 9.88 8.2 5.31 12.8l-11.94 12-4.78 4.82h-21.13q7.28-7.34 14.54-14.66h-14.08c-5.42 0-9.7-6.47-6.48-11.29l12.07-18h-28.5l-21.2 36.29h17.55a7.3 7.3 0 0 1 7.33 7.7h-45.43a7.2 7.2 0 0 1 1-4l10.81-18.45 14.85-25.4c1-1.68 1.86-3.41 2.84-5 2-3.29 4.44-5.95 9.07-6.11 2.27-.08 4.55-.13 6.82-.16 13-.22 26 .16 38.9.16 5.42 0 9.71 6.47 6.48 11.29l-12.06 18z" fill="#231815"/><g fill="none" stroke="#231815" stroke-miterlimit="10"><path d="m342.16 214.61a97.94 97.94 0 0 0 -63.86-86.09c-37.69-13.82-81.9-1.63-107.27 29.42-25 30.59-29.26 74.26-10 108.75"/><path d="m171.25 253.81a83 83 0 0 1 4.39-76.62c17.54-29 52.48-44.61 85.76-37.86a82.66 82.66 0 0 1 64.92 68.08"/><path d="m253.07 94.73v-33.66c0-9.65-15-9.66-15 0v33.66c0 9.65 15 9.67 15 0z"/><path d="m245.57 61.07v33.66"/><path d="m176.67 115.24c4.82 8.36 17.79.81 13-7.57l-16.88-29.15c-4.82-8.35-17.79-.81-12.95 7.57z"/><path d="m183.14 111.45-16.82-29.14"/><path d="m104.51 146.8 29.15 16.83c8.37 4.84 15.94-8.12 7.57-13l-29.15-16.83c-8.37-4.8-15.93 8.2-7.57 13z"/><path d="m108.3 140.33 29.14 16.82"/><path d="m120.72 227.08c9.65 0 9.66-15 0-15h-33.66c-9.65 0-9.67 15 0 15z"/><path d="m87.06 219.58h33.66"/><path d="m112.08 305.31 29.15-16.82c8.36-4.83.81-17.8-7.57-13l-29.15 16.82c-8.35 4.88-.81 17.84 7.57 13z"/><path d="m108.3 298.84 29.14-16.83"/><path d="m370.43 227.08h33.65c9.65 0 9.67-15 0-15h-33.65c-9.65 0-9.67 15 0 15z"/><path d="m404.08 219.58h-33.65"/><path d="m357.49 163.63 29.14-16.83c8.36-4.82.81-17.79-7.57-12.95l-29.15 16.83c-8.35 4.82-.81 17.79 7.58 12.95z"/><path d="m353.7 157.15 29.15-16.82"/><path d="m314.48 115.24 16.82-29.15c4.84-8.37-8.12-15.93-12.95-7.57l-16.83 29.15c-4.83 8.33 8.13 15.94 12.96 7.57z"/><path d="m308 111.45 16.83-29.14"/><path d="m161 266.69c-.54.89-1.07 1.79-1.57 2.71-15.16 27.65-9.63 63.37 13.66 84.79a70.88 70.88 0 0 0 47.42 18.61c4.86.06 7.27-3.72 7.24-7.5"/><path d="m236.75 235.31a71.07 71.07 0 0 0 -65.5 18.5"/><path d="m326.32 207.41a77.68 77.68 0 0 0 -10.32-2.59 82.25 82.25 0 0 0 -79.21 30.49"/><path d="m354 365.3c-.05 3.79 2.36 7.57 7.24 7.5a59.9 59.9 0 0 0 58.76-52.34c3.54-28.75-15.3-56-42.73-63.9"/><path d="m377.26 256.56a83.62 83.62 0 0 0 -35.1-42"/><path d="m377.26 256.56c.54 1.41 1 2.84 1.51 4.29l-5.24-5.24c1.26.27 2.47.6 3.73.95z"/><path d="m241.73 236.63c-1.65-.51-3.32-.94-5-1.32-1.21 1.54-2.38 3.13-3.49 4.77z"/><path d="m342.33 219c0-1.47-.09-2.95-.17-4.41a78.41 78.41 0 0 0 -15.84-7.2 81.11 81.11 0 0 1 .89 8.29"/><path d="m328.18 216.08c3.1-5.82 13.72-4.84 14.15 2.94"/><path d="m174.86 260.82q-2-3.42-3.61-7a68.43 68.43 0 0 0 -10.25 12.87c.53 1 1.08 1.92 1.65 2.86.91 1.5 1.87 3 2.86 4.4"/><path d="m342.33 220.15a7.37 7.37 0 0 1 -.76 2.89"/><path d="m342.33 219v.56.07.42"/><path d="m342.33 220.07c0-.14 0-.28 0-.42"/><path d="m342.33 220.07v.08"/><path d="m342.22 223.47c.05-1.1.1-2.21.11-3.32"/><path d="m341.4 232.24a66.91 66.91 0 0 1 22.91 32.59 7.52 7.52 0 0 0 5.24 5.24c22.53 4.89 38.5 25.75 35.6 49-2.74 22.09-22 38.41-43.95 38.7-4.78.07-7.2 3.78-7.24 7.5h7.24a51.75 51.75 0 0 0 10.34-102.46 73.9 73.9 0 0 0 -29.32-39.37"/><path d="m327.21 215.7a73.74 73.74 0 0 0 -83.52 22.76q-2.1 2.61-4 5.4a60.56 60.56 0 0 0 -6.89-1.8 62.27 62.27 0 0 0 -58 18.77"/><path d="m179.16 267.37a54.19 54.19 0 0 1 14.14-11.78c13.59-7.83 29.55-9.09 44.44-4.5 3.34 1 6.62-.73 8.47-3.44 14.64-21.54 41.42-33.14 67.15-28.1a67.43 67.43 0 0 1 13.82 4.3"/><path d="m165.55 273.95a62.24 62.24 0 0 0 55 91.35h7.24c0-3.72-2.44-7.44-7.24-7.5-24.5-.27-46.36-16.6-52.84-40.4a54.66 54.66 0 0 1 3-36.61"/><path d="m341.57 223a73 73 0 0 0 -13.39-7"/><path d="m329.75 225c1 .47 1.94 1 2.89 1.48"/><path d="m174.86 260.82a62.33 62.33 0 0 0 -9.31 13.13q2.43 3.56 5.14 6.84a55.56 55.56 0 0 1 8.47-13.42 75.29 75.29 0 0 1 -4.3-6.55z"/><path d="m328.18 216.08-1-.38c.07 1.29.12 2.58.13 3.88a7.48 7.48 0 0 1 .87-3.5z"/><path d="m327.34 219.58c0 1.43-.08 2.85-.16 4.27.87.38 1.73.77 2.57 1.19a7 7 0 0 1 -2.41-5.46z"/><path d="m332.64 226.52a67.93 67.93 0 0 1 8.76 5.72c.41-2.89.68-5.82.82-8.77l-.65-.43c-1.63 3.23-5.57 4.39-8.93 3.48z"/><path d="m328.67 365.3 4.78-4.82 11.94-12c4.57-4.6 1.21-12.8-5.31-12.8h-18l12.06-18c3.23-4.82-1.06-11.29-6.48-11.29-12.94 0-25.94-.38-38.9-.16-2.27 0-4.55.08-6.82.16-4.63.16-7.06 2.82-9.07 6.11-1 1.58-1.86 3.31-2.84 5l-14.89 25.41-10.81 18.45a7.2 7.2 0 0 0 -1 4 7.58 7.58 0 0 0 7.46 7.3h18.61l-30.71 62.34c-3.1 4.77.79 10.6 5.58 11.4a6.17 6.17 0 0 0 6.86-2.89z"/><path d="m307.54 365.3-35.48 35.77 15.86-32.19a8.36 8.36 0 0 0 .85-3.58 7.3 7.3 0 0 0 -7.33-7.7h-17.55l21.24-36.25h28.5l-12.07 18c-3.22 4.82 1.06 11.29 6.48 11.29h14q-7.22 7.36-14.5 14.66z"/></g></svg>