<svg viewBox="0 0 500 500" xmlns="http://www.w3.org/2000/svg"><path d="m369.54 290.92c22.53 4.88 38.5 25.74 35.61 49-2.75 22.09-22 38.41-44 38.7-4.78.06-7.2 3.78-7.24 7.5h-126.13c0-3.72-2.44-7.45-7.24-7.5-24.5-.27-46.36-16.6-52.84-40.4a54.66 54.66 0 0 1 3-36.61 55.56 55.56 0 0 1 8.47-13.42 54.11 54.11 0 0 1 14.15-11.79c13.58-7.83 29.54-9.08 44.43-4.49 3.34 1 6.63-.74 8.47-3.45 14.64-21.53 41.42-33.13 67.15-28.1a66.85 66.85 0 0 1 13.82 4.31c.87.38 1.73.77 2.57 1.18s1.94 1 2.89 1.49a67.07 67.07 0 0 1 31.67 38.31 7.54 7.54 0 0 0 5.22 5.27zm-43 91.5c3.61-1 6.7-5.42 5.24-9.22l-7.41-19.2c-1.45-3.78-5-6.39-9.22-5.24-3.62 1-6.7 5.42-5.24 9.22l7.37 19.2c1.45 3.82 5.05 6.39 9.23 5.24zm-38 0c3.61-1 6.7-5.42 5.24-9.22l-7.37-19.2c-1.45-3.78-5-6.39-9.22-5.24-3.62 1-6.7 5.42-5.24 9.22l7.37 19.2c1.45 3.82 5.05 6.39 9.23 5.24zm-38 0c3.61-1 6.69-5.42 5.23-9.22q-3.67-9.6-7.37-19.2c-1.45-3.78-5-6.39-9.23-5.24-3.61 1-6.69 5.42-5.23 9.22q3.67 9.6 7.37 19.2c1.5 3.82 5.1 6.39 9.28 5.24z" fill="#dcdddd"/><path d="m404.07 232.93c9.67 0 9.65 15 0 15h-33.65c-9.67 0-9.65-15 0-15z" fill="#231815"/><path d="m342.21 244.32a73.77 73.77 0 0 1 29.32 39.37 51.75 51.75 0 0 1 -10.34 102.46h-7.19c0-3.72 2.46-7.44 7.24-7.5 22-.29 41.21-16.61 44-38.7 2.89-23.29-13.08-44.15-35.61-49a7.54 7.54 0 0 1 -5.24-5.24 66.86 66.86 0 0 0 -22.91-32.59q.52-4.38.73-8.8z" fill="#231815"/><path d="m379.05 154.7c8.38-4.84 15.93 8.13 7.57 13l-29.14 16.83c-8.39 4.84-15.93-8.13-7.57-12.95z" fill="#231815"/><path d="m377.25 277.41c27.43 7.88 46.27 35.14 42.73 63.9a59.9 59.9 0 0 1 -58.79 52.34c-4.88.06-7.29-3.72-7.24-7.5h7.24a51.75 51.75 0 0 0 10.34-102.46 73.77 73.77 0 0 0 -29.32-39.37c.06-1.1.1-2.21.11-3.32v-.08c0-.14 0-.28 0-.42v-.07c0-.17 0-.34 0-.51 0-1.5-.09-3-.17-4.47a83.68 83.68 0 0 1 35.1 42c-1.23-.36-2.46-.68-3.73-1l5.24 5.24c-.46-1.44-.97-2.87-1.51-4.28z" fill="#231815"/><path d="m377.25 277.41c.54 1.41 1 2.84 1.51 4.28l-5.24-5.24c1.27.28 2.48.6 3.73.96z" fill="#231815"/><path d="m348.21 416.08c1.46 3.8-1.62 8.23-5.23 9.22-4.18 1.15-7.78-1.45-9.23-5.23q-3.69-9.6-7.37-19.21c-1.46-3.8 1.62-8.23 5.23-9.22 4.18-1.15 7.78 1.46 9.23 5.24q3.69 9.6 7.37 19.2z" fill="#2ea7e0"/><path d="m342.32 240.92c0-.14 0-.28 0-.42.01.14.01.28 0 .42z" fill="#231815"/><path d="m341.56 243.89a7.37 7.37 0 0 0 .76-2.89c0 1.11-.05 2.22-.11 3.32-.21-.15-.43-.32-.65-.43z" fill="#231815"/><path d="m341.56 243.89c-1.63 3.23-5.6 4.39-8.93 3.48-1-.52-1.91-1-2.89-1.49a6.93 6.93 0 0 1 -2.41-5.45 7.45 7.45 0 0 1 .84-3.5 72.34 72.34 0 0 1 13.39 6.96z" fill="#231815"/><path d="m328.17 236.93c3.1-5.84 13.76-4.84 14.15 3v.51.07.42.07a7.37 7.37 0 0 1 -.76 2.89 72.34 72.34 0 0 0 -13.39-6.96z" fill="#231815"/><path d="m332.63 247.37c3.33.91 7.3-.25 8.93-3.48.22.14.44.28.65.43q-.21 4.43-.82 8.77a66.89 66.89 0 0 0 -8.76-5.72z" fill="#231815"/><path d="m331.75 373.2c1.46 3.8-1.63 8.23-5.24 9.22-4.18 1.15-7.78-1.46-9.23-5.24l-7.37-19.18c-1.46-3.8 1.62-8.23 5.24-9.22 4.18-1.15 7.77 1.46 9.22 5.24z" fill="#2ea7e0"/><path d="m318.34 99.37c4.83-8.37 17.79-.8 12.95 7.57l-16.82 29.15c-4.83 8.36-17.79.8-13-7.57z" fill="#231815"/><path d="m327.2 236.54a81.22 81.22 0 0 0 -.89-8.28 78.37 78.37 0 0 1 15.84 7.19c.08 1.48.15 3 .17 4.47-.39-7.83-11.05-8.83-14.15-3z" fill="#231815"/><path d="m328.17 236.93a7.45 7.45 0 0 0 -.84 3.5c0-1.3-.06-2.6-.13-3.89z" fill="#231815"/><path d="m327.33 240.43a6.93 6.93 0 0 0 2.41 5.45c-.84-.41-1.7-.8-2.57-1.18.09-1.42.15-2.84.16-4.27z" fill="#231815"/><path d="m220.54 261.68a62.17 62.17 0 0 1 12.29 1.22 60.56 60.56 0 0 1 6.89 1.8 73.78 73.78 0 0 1 87.48-28.17c.07 1.29.12 2.59.13 3.89s-.07 2.85-.16 4.27a66.85 66.85 0 0 0 -13.82-4.31c-25.73-5-52.51 6.57-67.15 28.1-1.84 2.71-5.13 4.48-8.47 3.45-14.89-4.59-30.85-3.34-44.43 4.49a54.11 54.11 0 0 0 -14.15 11.79 72.94 72.94 0 0 1 -4.29-6.55 62 62 0 0 1 45.68-19.98z" fill="#231815"/><path d="m301.11 231.79a73.63 73.63 0 0 0 -61.39 32.92 60.56 60.56 0 0 0 -6.89-1.8l.42-2 8.47-3.44c-1.65-.51-3.31-.94-5-1.33a82.28 82.28 0 0 1 79.28-30.47 76.17 76.17 0 0 1 10.36 2.59 81.22 81.22 0 0 1 .89 8.28 73.53 73.53 0 0 0 -26.14-4.75z" fill="#231815"/><path d="m310.25 416.08c1.46 3.8-1.62 8.23-5.23 9.22-4.18 1.15-7.78-1.45-9.23-5.23l-7.38-19.21c-1.46-3.8 1.63-8.23 5.24-9.22 4.18-1.15 7.78 1.46 9.23 5.24q3.69 9.6 7.37 19.2z" fill="#2ea7e0"/><path d="m261.39 160.18a82.63 82.63 0 0 1 64.92 68.08 76.17 76.17 0 0 0 -10.31-2.59 82.28 82.28 0 0 0 -79.21 30.48 71.08 71.08 0 0 0 -65.5 18.51 83.06 83.06 0 0 1 4.34-76.66c17.54-28.92 52.48-44.57 85.76-37.82z" fill="#f8b62d"/><path d="m293.79 373.2c1.46 3.8-1.63 8.23-5.24 9.22-4.18 1.15-7.78-1.46-9.23-5.24l-7.32-19.18c-1.46-3.8 1.62-8.23 5.24-9.22 4.18-1.15 7.77 1.46 9.22 5.24z" fill="#2ea7e0"/><path d="m272.29 416.08c1.46 3.8-1.62 8.23-5.24 9.22-4.18 1.15-7.77-1.45-9.22-5.23l-7.38-19.2c-1.46-3.81 1.63-8.24 5.24-9.23 4.18-1.15 7.78 1.46 9.23 5.24z" fill="#2ea7e0"/><path d="m255.82 373.2c1.46 3.8-1.62 8.23-5.23 9.22-4.18 1.15-7.78-1.46-9.23-5.24q-3.69-9.6-7.37-19.2c-1.46-3.8 1.62-8.23 5.23-9.22 4.18-1.15 7.78 1.46 9.23 5.24q3.69 9.6 7.37 19.2z" fill="#2ea7e0"/><g fill="#231815"><path d="m253.06 81.92v33.65c0 9.67-15 9.66-15 0v-33.65c0-9.67 15-9.65 15 0z"/><path d="m241.72 257.48-8.47 3.44c1.11-1.64 2.28-3.23 3.49-4.77 1.67.39 3.33.85 4.98 1.33z"/><path d="m171.24 274.66a71.08 71.08 0 0 1 65.5-18.51c-1.21 1.54-2.38 3.13-3.49 4.77l-.42 2a62.25 62.25 0 0 0 -58 18.77 78.73 78.73 0 0 1 -3.59-7.03z"/><path d="m189.61 128.52c4.84 8.38-8.13 15.92-13 7.57l-16.83-29.15c-4.78-8.38 8.22-15.94 13-7.57z"/><path d="m158.31 323.92a62.23 62.23 0 0 0 62.23 62.23h7.24c0 3.78-2.38 7.55-7.24 7.5a70.94 70.94 0 0 1 -47.42-18.65c-23.28-21.41-28.82-57.13-13.66-84.78.5-.92 1-1.82 1.57-2.71.53 1 1.08 1.91 1.65 2.86.91 1.5 1.87 3 2.86 4.4a61.93 61.93 0 0 0 -7.23 29.15z"/><path d="m174.86 281.67a72.94 72.94 0 0 0 4.29 6.55 55.56 55.56 0 0 0 -8.47 13.42q-2.72-3.28-5.14-6.84a62 62 0 0 1 9.32-13.13z"/><path d="m342.15 235.45a78.37 78.37 0 0 0 -15.84-7.19 82.63 82.63 0 0 0 -64.92-68.08c-33.28-6.75-68.22 8.9-85.76 37.85a83.06 83.06 0 0 0 -4.39 76.63 67.8 67.8 0 0 0 -10.24 12.88c-19.27-34.5-15-78.17 10-108.75 25.37-31 69.58-43.25 107.27-29.43a98 98 0 0 1 63.88 86.09z"/><path d="m174.86 281.67a62 62 0 0 0 -9.32 13.13c-1-1.44-1.95-2.9-2.86-4.4-.57-.95-1.12-1.9-1.65-2.86a67.8 67.8 0 0 1 10.21-12.88 78.73 78.73 0 0 0 3.62 7.01z"/><path d="m220.54 378.65c4.8.05 7.21 3.78 7.24 7.5h-7.24a62.24 62.24 0 0 1 -55-91.35q2.43 3.56 5.14 6.84a54.66 54.66 0 0 0 -3 36.61c6.5 23.8 28.32 40.13 52.86 40.4z"/><path d="m141.22 171.53c8.37 4.83.8 17.78-7.57 12.95l-29.15-16.83c-8.36-4.83-.8-17.79 7.57-13z"/><path d="m133.65 296.38c8.38-4.84 15.93 8.13 7.57 12.95l-29.15 16.83c-8.38 4.84-15.92-8.13-7.57-13z"/><path d="m120.71 232.93c9.66 0 9.65 15 0 15h-33.66c-9.67 0-9.65-15 0-15z"/></g></svg>