<svg viewBox="0 0 500 500" xmlns="http://www.w3.org/2000/svg"><path d="m414.21 317.72c1.12 20.53-11 40.15-30.35 47.57-8.74 3.35-17.5 3.18-26.61 3.18h-124.34c-5.9 0-11.81.05-17.71 0a58.92 58.92 0 0 1 -53.79-83 58 58 0 0 1 6.5-11.18c.84-1.13 1.71-2.22 2.63-3.27 15.46-18.02 40.46-24.49 63.16-17.47 3.6 1.11 7.14-.8 9.12-3.72 15.77-23.19 44.6-35.68 72.31-30.26a72 72 0 0 1 14.87 4.64c.94.41 1.86.83 2.77 1.27 1.06.52 2.09 1 3.11 1.6a72.2 72.2 0 0 1 34 41 6.86 6.86 0 0 0 5.72 5.86c20.92 4.57 37.4 22 38.61 43.78z" fill="#fff"/><path d="m236.74 239.68a82.26 82.26 0 0 1 79.26-30.48 76.12 76.12 0 0 1 10.36 2.59 82.65 82.65 0 0 0 -64.96-68.09c-33.28-6.74-68.23 8.91-85.76 37.86a83 83 0 0 0 -4.39 76.63 71.06 71.06 0 0 1 65.49-18.51z" fill="#f8b62d"/><g fill="#231815"><path d="m171.25 258.18a83 83 0 0 1 4.39-76.63c17.54-28.95 52.48-44.6 85.76-37.86a82.65 82.65 0 0 1 64.92 68.08 78.22 78.22 0 0 1 15.83 7.23 98 98 0 0 0 -63.86-86.09c-37.69-13.82-81.9-1.62-107.27 29.43-25 30.58-29.25 74.26-10 108.75a67.67 67.67 0 0 1 10.23-12.91z"/><path d="m238.07 65.45v33.65c0 9.65 15 9.67 15 0v-33.65c0-9.66-15-9.67-15 0z"/><path d="m189.61 112-16.82-29.1c-4.83-8.36-17.79-.81-13 7.57l16.83 29.15c4.87 8.38 17.84.8 12.99-7.62zm-6.48 3.79-16.82-29.11z"/><path d="m141.22 155.05-29.15-16.83c-8.37-4.84-15.94 8.12-7.57 13l29.15 16.78c8.35 4.84 15.94-8.12 7.57-12.95zm-32.93-10.35 29.15 16.83z"/><path d="m120.71 216.45h-33.65c-9.65 0-9.67 15 0 15h33.65c9.65 0 9.67-15 0-15z"/><path d="m133.65 279.91-29.15 16.83c-8.36 4.83-.81 17.79 7.57 13l29.15-16.83c8.36-4.91.78-17.84-7.57-13zm-25.36 23.3 29.15-16.83z"/><path d="m370.42 231.45h33.65c9.65 0 9.67-15 0-15h-33.65c-9.65 0-9.67 15 0 15z"/><path d="m379.06 138.22-29.15 16.83c-8.36 4.83-.81 17.79 7.57 13l29.15-16.83c8.37-4.87.81-17.84-7.57-13zm-25.36 23.3 29.15-16.83z"/><path d="m318.35 82.9-16.83 29.1c-4.84 8.38 8.12 15.94 13 7.57l16.78-29.1c4.83-8.38-8.12-15.94-12.95-7.57zm-10.35 32.93 16.83-29.15z"/><path d="m241.72 241c-1.65-.51-3.31-.94-5-1.32q-1.82 2.31-3.49 4.77z"/><path d="m220.54 245.21a62.16 62.16 0 0 1 19.18 3 73.75 73.75 0 0 1 87.48-28.16 82.08 82.08 0 0 0 -.89-8.28 76.12 76.12 0 0 0 -10.31-2.57 82.26 82.26 0 0 0 -79.21 30.48c1.67.38 3.33.81 5 1.32l-8.47 3.45q1.67-2.46 3.49-4.77a71.06 71.06 0 0 0 -65.49 18.51 78.63 78.63 0 0 0 3.61 7 62.05 62.05 0 0 1 45.61-19.98z"/><path d="m158.31 307.44a61.94 61.94 0 0 1 7.23-29.12c-1-1.44-1.95-2.9-2.86-4.4-.57-.94-1.12-1.9-1.65-2.86q-.81 1.33-1.57 2.71c-15.16 27.65-9.62 63.37 13.66 84.79a70.91 70.91 0 0 0 47.42 18.61c4.86.05 7.27-3.72 7.24-7.5h-7.24a62.23 62.23 0 0 1 -62.23-62.23z"/><path d="m377.25 260.93c.54 1.41 1 2.84 1.51 4.28l-5.23-5.21c1.26.27 2.5.6 3.73 1a83.67 83.67 0 0 0 -35.1-42c.1 1.65.17 3.31.18 5 0 1.3-.05 2.6-.12 3.89a73.86 73.86 0 0 1 29.32 39.37 51.75 51.75 0 0 1 -10.34 102.46h-7.2c0 3.78 2.36 7.56 7.24 7.5a59.9 59.9 0 0 0 58.76-52.39c3.52-28.75-15.32-56.02-42.75-63.9z"/><path d="m378.77 265.22c-.46-1.45-1-2.87-1.51-4.28-1.23-.35-2.47-.68-3.73-1z"/><path d="m327.21 220.07 1 .38c3.17-6 14.22-4.79 14.15 3.5 0-1.67-.08-3.33-.18-5a78.22 78.22 0 0 0 -15.84-7.19 82.08 82.08 0 0 1 .87 8.31z"/><path d="m328.18 220.45a73.45 73.45 0 0 1 13.39 7 7.44 7.44 0 0 0 .77-3.46c.06-8.33-10.99-9.5-14.16-3.54z"/><path d="m342.22 227.84c.06-1.29.11-2.59.12-3.89a7.44 7.44 0 0 1 -.77 3.46z"/><path d="m165.54 278.33a62.36 62.36 0 0 1 9.32-13.13 78.63 78.63 0 0 1 -3.61-7 67.67 67.67 0 0 0 -10.25 12.87c.54 1 1.08 1.91 1.65 2.86.94 1.5 1.91 2.96 2.89 4.4z"/><path d="m220.54 362.17c-24.5-.27-46.36-16.6-52.84-40.4a54.61 54.61 0 0 1 3-36.61q-2.71-3.29-5.14-6.84a62.23 62.23 0 0 0 55 91.35h7.24c-.05-3.67-2.46-7.44-7.26-7.5z"/><path d="m412.94 317.93a51.77 51.77 0 0 0 -41.41-50.71 73.86 73.86 0 0 0 -29.32-39.37q-.21 4.42-.82 8.77a66.85 66.85 0 0 1 22.91 32.58 7.54 7.54 0 0 0 5.24 5.24c22.53 4.89 38.5 25.75 35.61 49-2.74 22.09-22 38.41-44 38.7-4.78.06-7.2 3.78-7.24 7.5h7.24a51.75 51.75 0 0 0 51.79-51.71z"/><path d="m193.3 260c13.58-7.83 29.54-9.09 44.43-4.49 3.34 1 6.63-.74 8.47-3.45 14.65-21.54 41.42-33.14 67.15-28.1a66.9 66.9 0 0 1 13.82 4.31c.09-1.42.15-2.84.16-4.27s-.06-2.6-.13-3.88a73.75 73.75 0 0 0 -87.48 28.16 62.23 62.23 0 0 0 -64.87 17 77.26 77.26 0 0 0 4.29 6.55 54.17 54.17 0 0 1 14.16-11.83z"/><path d="m328.18 220.45-1-.38c.07 1.29.12 2.58.13 3.88a7.48 7.48 0 0 1 .87-3.5z"/><path d="m174.86 265.2a62.36 62.36 0 0 0 -9.32 13.13q2.43 3.55 5.14 6.84a55.65 55.65 0 0 1 8.47-13.42 77.26 77.26 0 0 1 -4.29-6.55z"/><path d="m329.75 229.41q1.46.71 2.88 1.48c3.34.91 7.3-.25 8.93-3.48a73.45 73.45 0 0 0 -13.39-7 7.48 7.48 0 0 0 -.85 3.5 6.94 6.94 0 0 0 2.43 5.5z"/><path d="m327.33 224c0 1.43-.07 2.85-.16 4.27q1.3.57 2.57 1.18a6.94 6.94 0 0 1 -2.41-5.45z"/><path d="m332.63 230.89a67.18 67.18 0 0 1 8.76 5.72q.61-4.34.82-8.77l-.65-.43c-1.63 3.24-5.56 4.39-8.93 3.48z"/><path d="m246.71 369.67h-7.24c0 3.75 2.41 7.5 7.24 7.5h89.29c4.83 0 7.24-3.75 7.25-7.5z"/><path d="m336 362.17h-89.29c-4.83 0-7.24 3.75-7.24 7.5h103.75c0-3.75-2.41-7.5-7.22-7.5z"/><path d="m370.73 329.24c4.64-12.68-.36-27.14-11.45-34.65-12.35-8.37-29.43-5.69-39 5.53a7.46 7.46 0 0 0 -1.34 7.84l6.64-2.54a22.14 22.14 0 1 1 17.3 36h-111.43l19.63-7.5h-19.63c-9.65 0-9.67 15 0 15h105.7c2.36 0 4.74.1 7.09 0a30 30 0 0 0 26.49-19.68z"/><path d="m342.84 341.38a22.14 22.14 0 1 0 -17.3-36l-6.65 2.62c1.85 4.65 7.82 7.59 11.95 2.76 6.16-7.19 17.15-8.58 23.48-.62a14.8 14.8 0 0 1 -3.71 21.55c-5.52 3.49-14 2.22-20.26 2.22h-79.28l-19.62 7.5z"/><path d="m334.3 393.77c-6.71-3.72-13.88-3.31-21.21-3.31h-48.64c-9.65 0-9.67 15 0 15h10.83l-10.83-7.46h57.2a18.29 18.29 0 1 1 -14.3 29.71l-5.87-4.06a7.53 7.53 0 0 0 .56 9.37 26 26 0 0 0 40.1-1.16c9.29-12.21 5.64-30.61-7.84-38.09z"/><path d="m321.66 434.55a18.29 18.29 0 1 0 0-36.59h-57.2l10.83 7.5h36.29c5.72 0 13.28-1.27 17.72 3.16a10.85 10.85 0 0 1 0 15.27c-5.06 5.06-12.28 3.5-16.63-1.52-3.67-4.24-8.76-2.43-11.17 1.24l5.87 4.06a18.26 18.26 0 0 0 14.29 6.88z"/></g></svg>