<svg viewBox="0 0 500 500" xmlns="http://www.w3.org/2000/svg"><path d="m304.41 257a65.85 65.85 0 0 1 3.54 8.83 7.56 7.56 0 0 0 5.24 5.24 46.29 46.29 0 0 1 18.87 8.93 44.33 44.33 0 0 1 17 32.17 43 43 0 0 1 -3.3 19.37 45.18 45.18 0 0 1 -40.91 27.31c-4.78.06-7.19 3.78-7.24 7.5h-126.17c0-3.73-2.45-7.45-7.24-7.5-24.51-.27-46.37-16.6-52.84-40.4a55.22 55.22 0 0 1 25.64-61.87 53.53 53.53 0 0 1 20.47-6.75 56.91 56.91 0 0 1 16.11.41 60.36 60.36 0 0 1 7.85 1.85c3.34 1 6.63-.74 8.47-3.45a67.42 67.42 0 0 1 48.69-28.94 63.45 63.45 0 0 1 18.47.84l.28.06a67.1 67.1 0 0 1 47.07 36.4zm-34.25 105.57c3.62-1 6.7-5.42 5.24-9.22q-1.35-3.54-2.71-7.06l-4.69-12.15a9.27 9.27 0 0 0 -2.74-3.85 7.05 7.05 0 0 0 -6.49-1.38l-.26.08c-3.5 1.14-6.4 5.43-5 9.14l2.13 5.54 5.25 13.66c1.5 3.78 5.11 6.39 9.27 5.24zm-38 0c3.62-1 6.7-5.42 5.24-9.22l-6.88-17.92-.49-1.29c-1.45-3.77-5-6.38-9.23-5.23a6.8 6.8 0 0 0 -1.73.76c-2.78 1.69-4.73 5.29-3.51 8.46l7.38 19.2c1.49 3.78 5.06 6.39 9.26 5.24zm-38 0c3.62-1 6.7-5.42 5.24-9.22q-3.69-9.6-7.37-19.21c-1.46-3.77-5.05-6.38-9.23-5.23-3.62 1-6.7 5.42-5.24 9.22q3.69 9.6 7.37 19.2c1.54 3.78 5.13 6.39 9.31 5.24z" fill="#dcdddd"/><path d="m400 271.3q-4.25-5.51-8.47-11l-.53-1.5c1.69-.61 3.36-1.26 5-2 6.82-2.85 10.67 5.93 8.47 11a131.89 131.89 0 0 1 -40.71 52 57.23 57.23 0 0 0 -1.27-18.43 120.86 120.86 0 0 0 20.14-24.29 126.8 126.8 0 0 0 17.37-5.78z" fill="#231815"/><path d="m391.56 260.28q4.23 5.52 8.47 11a126.8 126.8 0 0 1 -17.36 5.81 123.35 123.35 0 0 0 8.89-16.81z" fill="#231815"/><path d="m391 258.8.55 1.48a123.35 123.35 0 0 1 -8.89 16.83 129.68 129.68 0 0 1 -29.14 4.06 60.76 60.76 0 0 0 -15.76-15.69 119.2 119.2 0 0 0 53.24-6.68z" fill="#231815"/><path d="m367.51 159.52c5.59-.67-1.95 7 1.38 7.91l-.65-.2a6.73 6.73 0 0 1 -4.65-6.31c.63-.25 1.26-.5 1.89-.73a10.06 10.06 0 0 1 2.03-.67z" fill="#231815"/><path d="m372.88 153c9.27 2.66 5.3 17.13-4 14.47-3.33-.9 4.21-8.58-1.38-7.91a10.06 10.06 0 0 0 -2 .67c-.63.23-1.26.48-1.89.73-.22-4.62 3.5-9.55 9.27-7.96z" fill="#231815"/><path d="m353.53 281.17a129.68 129.68 0 0 0 29.14-4.06 120.86 120.86 0 0 1 -20.14 24.29 59.84 59.84 0 0 0 -9-20.23z" fill="#f4ec90"/><g fill="#231815"><path d="m363.64 321.46a59.91 59.91 0 0 1 -58.8 52.34c-4.87.06-7.28-3.72-7.24-7.5h7.24a51.76 51.76 0 0 0 50.51-40.49q4.33-2.82 8.45-6c-.05.56-.1 1.1-.16 1.65z"/><path d="m360.41 162.27c1-.48 2.11-.92 3.18-1.35a6.73 6.73 0 0 0 4.65 6.31 53.23 53.23 0 0 1 -9.75-4c.63-.33 1.26-.66 1.92-.96z"/><path d="m356 307c2.24-1.78 4.4-3.65 6.5-5.58a57.23 57.23 0 0 1 1.27 18.43q-4.11 3.15-8.45 6a51.62 51.62 0 0 0 .68-18.85z"/><path d="m356 307a51.48 51.48 0 0 0 -11.73-25.91c3.07.14 6.15.18 9.23.1a59.84 59.84 0 0 1 9 20.23c-2.07 1.91-4.23 3.78-6.5 5.58z"/><path d="m356.59 314.55a51.6 51.6 0 0 1 -1.24 11.26c-3.11 2-6.32 3.92-9.6 5.68a43 43 0 0 0 3.3-19.37q3.6-2.44 7-5.14a51.1 51.1 0 0 1 .54 7.57z"/><path d="m355.35 325.81a51.76 51.76 0 0 1 -50.51 40.49h-7.24c0-3.72 2.46-7.44 7.24-7.5a45.18 45.18 0 0 0 40.91-27.31c3.25-1.76 6.49-3.65 9.6-5.68z"/><path d="m356 307q-3.39 2.7-7 5.14a44.33 44.33 0 0 0 -17-32.17q6.09.84 12.24 1.12a51.48 51.48 0 0 1 11.76 25.91z"/><path d="m344.3 281.07a51.76 51.76 0 0 0 -29.12-17.24c-.34-1.1-.71-2.19-1.11-3.28a116.94 116.94 0 0 0 23.7 4.93 60.76 60.76 0 0 1 15.76 15.69c-3.08.08-6.16.04-9.23-.1z"/><path d="m339.11 135.65a61.88 61.88 0 0 1 -2.55 5.7 54.66 54.66 0 0 1 -2.62-5.7 15.57 15.57 0 0 1 -1.17-3.36c-.13-.46-.26-.92-.4-1.38h8.31c.01 1.42-1.08 3.48-1.57 4.74z"/><path d="m314.66 163.28a53.7 53.7 0 0 1 11.13 7.79 50.46 50.46 0 0 1 10.71 14c-1.54 2.8-3.32 6.16-3.73 9.17-.35 2.53-2.14 1.38 3.76 1.38 4.85 0 4.52 1 3.54-2.06a60.67 60.67 0 0 0 -2.26-5.78c-.4-.91-.85-1.82-1.31-2.71l.59-1.07a52.57 52.57 0 0 1 21.4-20.79 53.23 53.23 0 0 0 9.75 4l.65.2c9.29 2.66 13.26-11.81 4-14.47a10.72 10.72 0 0 1 7.7 11.75c-.71 5.28-4.46 7.67-9.08 9.27-9.45 3.28-17.06 9.31-21.79 18.22-2 3.72-2.42 8.45-5.21 11.67a10.65 10.65 0 0 1 -12.16 2.71c-5-2.12-5.66-6.52-7.43-11a36.24 36.24 0 0 0 -5.87-9.89 37.88 37.88 0 0 0 -10.21-8.53c-3.48-2-7.46-2.6-10.91-4.5a10.74 10.74 0 0 1 -5.19-12.22c1.24-4.53 4.7-6.46 8.83-7.84a37.27 37.27 0 0 0 19.64-14.58c4.45-6.8 5.18-19.28 15.76-18.87 9.9.39 10.56 12.28 14.87 18.87a37.06 37.06 0 0 0 21 15c-5.77-1.55-9.49 3.38-9.29 8-1.07.43-2.14.87-3.18 1.35-.66.3-1.29.63-1.92 1a52.52 52.52 0 0 1 -21.93-21.88 61.88 61.88 0 0 0 2.55-5.7c.49-1.26 1.58-3.32 1.57-4.74h-8.31c.14.46.27.92.4 1.38a15.57 15.57 0 0 0 1.17 3.36 54.66 54.66 0 0 0 2.62 5.7c-.63 1.23-1.28 2.43-2 3.59a53.93 53.93 0 0 1 -14.61 15.19 43.92 43.92 0 0 1 -5.27 3.15 54.93 54.93 0 0 0 -7.74-3.4 11.34 11.34 0 0 0 -2.73-.83v4.15q-2 5.08.68 4c1.38 0 3.4-1.11 4.71-1.63q2.61-1.14 5.1-2.41z"/><path d="m337.81 187.8a60.67 60.67 0 0 1 2.26 5.78c1 3.07 1.31 2.06-3.54 2.06-5.9 0-4.11 1.15-3.76-1.38.41-3 2.19-6.37 3.73-9.17.5.91.91 1.8 1.31 2.71z"/></g><path d="m350.48 168.41a51.24 51.24 0 0 0 -13.39 15.59l-.59 1.07a50.46 50.46 0 0 0 -10.71-14 53.7 53.7 0 0 0 -11.13-7.79 43.92 43.92 0 0 0 5.27-3.15 53.93 53.93 0 0 0 14.61-15.19c.74-1.16 1.39-2.36 2-3.59a52.52 52.52 0 0 0 21.93 21.88 51.68 51.68 0 0 0 -7.99 5.18z" fill="#fff"/><path d="m315.18 263.83a51.76 51.76 0 0 1 29.12 17.24q-6.15-.27-12.24-1.12a46.29 46.29 0 0 0 -18.87-8.88 7.56 7.56 0 0 1 -5.24-5.24 65.85 65.85 0 0 0 -3.54-8.83c3.17 1.33 6.4 2.51 9.66 3.55.4 1.09.77 2.18 1.11 3.28z" fill="#231815"/><path d="m322.42 261.84-5.24-5.24c1.26.28 2.5.6 3.73 1 .53 1.4 1.09 2.8 1.51 4.24z" fill="#231815"/><path d="m306.9 160a54.93 54.93 0 0 1 7.76 3.33q-2.49 1.28-5.1 2.32c-1.31.52-3.33 1.67-4.71 1.63q-2.69 1.13-.68-4v-4.15a11.34 11.34 0 0 1 2.73.87z" fill="#231815"/><path d="m291.87 396.23c1.46 3.8-1.62 8.23-5.24 9.22-4.18 1.15-7.77-1.46-9.22-5.23l-7.41-19.22c-1.46-3.8 1.62-8.23 5.24-9.22 4.18-1.15 7.77 1.46 9.22 5.24z" fill="#2ea7e0"/><path d="m314.07 260.55c-3.26-1-6.49-2.22-9.66-3.55a67.1 67.1 0 0 0 -47.12-36.4c-2.05-2.71-4-5.49-5.76-8.35a73.74 73.74 0 0 1 62.54 48.3z" fill="#231815"/><path d="m265.29 330.29a9.27 9.27 0 0 1 2.74 3.85l4.66 12.15c-2.8-.25-5.6-.59-8.38-1s-5.77-1-8.62-1.61l-2.13-5.54c-1.42-3.71 1.48-8 5-9.14 2.22.49 4.44.93 6.73 1.29z" fill="#2ea7e0"/><path d="m255.69 343.67c2.85.63 5.73 1.17 8.62 1.61s5.58.76 8.38 1q1.37 3.52 2.71 7.06c1.46 3.8-1.62 8.23-5.24 9.22-4.18 1.15-7.77-1.46-9.22-5.24z" fill="#2ea7e0"/><path d="m258.8 328.91a7.05 7.05 0 0 1 6.49 1.38c-2.26-.36-4.51-.8-6.75-1.3z" fill="#2ea7e0"/><path d="m253.91 396.23c1.46 3.8-1.63 8.23-5.24 9.22-4.18 1.15-7.78-1.46-9.23-5.23q-3.67-9.6-7.37-19.21c-1.46-3.8 1.62-8.23 5.24-9.22 4.18-1.15 7.77 1.46 9.22 5.24z" fill="#2ea7e0"/><path d="m251.53 212.25c1.78 2.86 3.71 5.64 5.76 8.35l-.28-.06a63.45 63.45 0 0 0 -18.47-.84c-1.43-2.31-2.77-4.66-4-7a74.12 74.12 0 0 1 10.27-.72c2.24-.04 4.49.07 6.72.27z" fill="#231815"/><path d="m247.12 204.59a83.06 83.06 0 0 1 12.49 1.23c28.13 5 51.25 25.4 61.3 51.74-1.23-.36-2.47-.68-3.73-1l5.24 5.24c-.47-1.44-1-2.87-1.51-4.28a58.85 58.85 0 0 1 16.86 7.92 116.94 116.94 0 0 1 -23.7-4.93 73.74 73.74 0 0 0 -62.54-48.3q-2.35-3.71-4.41-7.62z" fill="#231815"/><path d="m247.12 204.59q2.06 3.9 4.41 7.66c-2.23-.2-4.48-.31-6.77-.31a74.12 74.12 0 0 0 -10.27.72q-1.81-3.39-3.42-6.85a81.62 81.62 0 0 1 16.05-1.22z" fill="#231815"/><path d="m247.12 204.59a81.62 81.62 0 0 0 -16.05 1.22 132.43 132.43 0 0 1 -8.38-88.66 121.61 121.61 0 0 1 16.83-8.9l1.47.55a118.43 118.43 0 0 0 6.13 95.79z" fill="#231815"/><path d="m232 95.29c5.13-2.22 13.87 1.63 11 8.47q-1.05 2.5-2 5l-1.47-.55-11-8.47-1.14-2.38q2.24-1.07 4.61-2.07z" fill="#231815"/><path d="m228.5 99.78 11 8.47a121.61 121.61 0 0 0 -16.83 8.9 126.92 126.92 0 0 1 5.83-17.37z" fill="#231815"/><path d="m234.49 212.66c1.28 2.38 2.62 4.73 4 7a67.42 67.42 0 0 0 -48.69 28.94c-1.84 2.71-5.13 4.48-8.47 3.45a60.36 60.36 0 0 0 -7.85-1.85q-1.26-4-2.22-8a61.88 61.88 0 0 1 12.07 2.62 73.68 73.68 0 0 1 51.16-32.16z" fill="#231815"/><path d="m230.07 334.14.49 1.29c-1.37-.6-2.73-1.22-4.07-1.87-2.51-1.21-5-2.52-7.38-3.89a6.8 6.8 0 0 1 1.73-.76c4.16-1.15 7.78 1.46 9.23 5.23z" fill="#2ea7e0"/><path d="m219.11 329.67c2.41 1.37 4.87 2.68 7.38 3.89 1.34.65 2.7 1.27 4.07 1.87l6.88 17.92c1.46 3.8-1.62 8.23-5.24 9.22-4.18 1.15-7.77-1.46-9.22-5.24l-7.38-19.2c-1.22-3.13.73-6.77 3.51-8.46z" fill="#2ea7e0"/><path d="m227.36 97.4 1.14 2.38a126.92 126.92 0 0 0 -5.81 17.37 116.89 116.89 0 0 0 -50.72 68 114.55 114.55 0 0 0 -2.22 49.54 71.06 71.06 0 0 0 -15.37.57 131.16 131.16 0 0 1 73-137.87z" fill="#231815"/><path d="m222.69 117.15a132.43 132.43 0 0 0 8.38 88.66 82.65 82.65 0 0 0 -50.68 30.49 70.48 70.48 0 0 0 -10.64-1.6 114.55 114.55 0 0 1 2.25-49.54 116.89 116.89 0 0 1 50.69-68.01z" fill="#f4ec90"/><path d="m216 396.23c1.46 3.8-1.63 8.23-5.24 9.22-4.18 1.15-7.78-1.46-9.23-5.23q-3.69-9.6-7.37-19.21c-1.46-3.8 1.62-8.23 5.24-9.22 4.18-1.15 7.77 1.46 9.22 5.24z" fill="#2ea7e0"/><path d="m199.48 353.35c1.46 3.8-1.62 8.23-5.24 9.22-4.18 1.15-7.77-1.46-9.23-5.24q-3.67-9.6-7.37-19.2c-1.46-3.8 1.62-8.23 5.24-9.22 4.18-1.15 7.77 1.46 9.23 5.23q3.68 9.6 7.37 19.21z" fill="#2ea7e0"/><path d="m185.37 237.62-8.47 3.45q1.68-2.46 3.49-4.77 2.51.57 4.98 1.32z" fill="#231815"/><path d="m231.07 205.81q1.6 3.47 3.42 6.85a73.68 73.68 0 0 0 -51.11 32.2 61.88 61.88 0 0 0 -12.07-2.62q-.9-3.74-1.56-7.54a70.48 70.48 0 0 1 10.64 1.6q-1.81 2.31-3.49 4.77l8.47-3.45q-2.48-.75-5-1.32a82.65 82.65 0 0 1 50.7-30.49z" fill="#231815"/><path d="m164.2 241.83a62 62 0 0 1 7.11.41q1 4 2.22 8a56.91 56.91 0 0 0 -16.11-.41q-1-3.67-1.76-7.4a61.65 61.65 0 0 1 8.54-.6z" fill="#231815"/><path d="m154.38 235.27a71.06 71.06 0 0 1 15.37-.57q.66 3.81 1.56 7.54a61.43 61.43 0 0 0 -15.65.19c-.5-2.37-.92-4.76-1.28-7.16z" fill="#231815"/><path d="m164.2 358.8c4.79.05 7.2 3.77 7.24 7.5h-7.24a62.23 62.23 0 0 1 -8.54-123.87q.76 3.72 1.76 7.4a53.53 53.53 0 0 0 -20.42 6.75 55.22 55.22 0 0 0 -25.59 61.82c6.42 23.8 28.28 40.13 52.79 40.4z" fill="#231815"/><path d="m171.44 366.3c0 3.78-2.38 7.55-7.24 7.5a70.92 70.92 0 0 1 -47.42-18.62c-23.29-21.41-28.78-57.13-13.66-84.78a69.7 69.7 0 0 1 51.26-35.13c.36 2.4.78 4.79 1.28 7.16a62.23 62.23 0 0 0 8.54 123.87z" fill="#231815"/></svg>